<svg width="74" height="59" viewBox="0 0 74 59" fill="none" xmlns="http://www.w3.org/2000/svg">
<path d="M4 55V52C4 40.402 13.402 31 25 31C36.598 31 46 40.402 46 52V55" stroke="black" stroke-width="6.57022" stroke-linecap="round"/>
<path d="M40 37.0001C40 28.7159 46.7158 22.0001 55 22.0001C63.2842 22.0001 70 28.7159 70 37.0001V38.5001" stroke="black" stroke-width="6.57022" stroke-linecap="round"/>
<path d="M25 31C31.6273 31 37 25.6273 37 19C37 12.3726 31.6273 7 25 7C18.3726 7 13 12.3726 13 19C13 25.6273 18.3726 31 25 31Z" stroke="black" stroke-width="6.57022" stroke-linecap="round" stroke-linejoin="round"/>
<path d="M55 22C59.9707 22 64 17.9705 64 13C64 8.02945 59.9707 4 55 4C50.0293 4 46 8.02945 46 13C46 17.9705 50.0293 22 55 22Z" stroke="black" stroke-width="6.57022" stroke-linecap="round" stroke-linejoin="round"/>
</svg>
