<svg width="61" height="61" viewBox="0 0 61 61" fill="none" xmlns="http://www.w3.org/2000/svg">
<path d="M58.082 2.6679C56.3685 0.966469 54.0517 0.0116264 51.637 0.0116264C49.2222 0.0116264 46.9055 0.966469 45.192 2.6679C45.0974 2.76295 45.0226 2.87579 44.972 2.9999C44.9276 3.11102 44.9039 3.22928 44.902 3.3489C44.902 3.3599 44.897 3.3719 44.895 3.3829C44.8951 3.51536 44.9213 3.64652 44.972 3.7689C45.022 3.89303 45.0969 4.00566 45.192 4.0999L50.204 9.1159L48.265 11.0539C43.4082 6.565 37.0385 4.07067 30.425 4.0679C30.4097 4.06089 30.3936 4.05617 30.377 4.0539C30.36 4.0539 30.347 4.0629 30.329 4.0629C23.7138 4.06592 17.3429 6.56258 12.487 11.0549L10.548 9.1159L15.563 4.0999C15.658 4.00564 15.7329 3.89302 15.783 3.7689C15.8337 3.64652 15.8598 3.51536 15.86 3.3829C15.86 3.3709 15.854 3.3609 15.853 3.3489C15.854 3.11512 15.7632 2.89029 15.6 2.7229C15.585 2.7059 15.58 2.6849 15.564 2.6679C13.8542 0.958045 11.5353 -0.00259177 9.11731 -0.00268554C6.69931 -0.00277931 4.38031 0.957678 2.67046 2.6674C0.960609 4.37711 -2.82953e-05 6.69604 -0.000122063 9.11404C-0.000215832 11.532 0.960241 13.851 2.66996 15.5609C2.68396 15.5759 2.70396 15.5799 2.71996 15.5939C2.80234 15.6715 2.89738 15.7344 3.00096 15.7799C3.1113 15.8233 3.22842 15.847 3.34696 15.8499C3.35896 15.8499 3.37096 15.8569 3.38396 15.8569C3.51597 15.8564 3.64665 15.8306 3.76896 15.7809C3.89283 15.7299 4.00534 15.6547 4.09996 15.5599L9.11596 10.5469L11.055 12.4859C8.49425 15.2535 6.55801 18.5388 5.37729 22.1197C4.19657 25.7006 3.79895 29.4933 4.21132 33.2412C4.62369 36.989 5.83645 40.6046 7.76748 43.843C9.69852 47.0815 12.3028 49.8673 15.404 52.0119L8.40396 59.0199C8.23028 59.2096 8.13537 59.4584 8.13853 59.7156C8.14169 59.9728 8.24268 60.2192 8.42097 60.4046C8.59926 60.59 8.84147 60.7006 9.09836 60.7139C9.35526 60.7271 9.60755 60.642 9.80396 60.4759L9.82896 60.4509L17.156 53.1239C21.1678 55.4645 25.7292 56.6978 30.374 56.6978C35.0187 56.6978 39.5801 55.4645 43.592 53.1239L50.919 60.4509C51.1089 60.6408 51.3664 60.7475 51.635 60.7475C51.9035 60.7475 52.1611 60.6408 52.351 60.4509C52.5409 60.261 52.6475 60.0034 52.6475 59.7349C52.6475 59.4663 52.5409 59.2088 52.351 59.0189L45.342 52.0109C48.4425 49.8659 51.0462 47.08 52.9769 43.8417C54.9076 40.6034 56.1204 36.9882 56.5331 33.2407C56.9458 29.4931 56.5489 25.7007 55.3691 22.1198C54.1894 18.539 52.2544 15.2532 49.695 12.4849L51.636 10.5459L56.65 15.5599C56.7446 15.6547 56.8571 15.7299 56.981 15.7809C57.1033 15.8306 57.234 15.8564 57.366 15.8569C57.379 15.8569 57.391 15.8499 57.403 15.8499C57.5215 15.847 57.6386 15.8233 57.749 15.7799C57.8525 15.7344 57.9476 15.6715 58.03 15.5939C58.045 15.5799 58.065 15.5759 58.08 15.5609C59.7804 13.8464 60.7347 11.5296 60.735 9.11481C60.7354 6.70006 59.7819 4.38293 58.082 2.6679ZM3.43896 13.3619C2.42598 11.996 1.93754 10.3115 2.06267 8.61555C2.1878 6.91959 2.91816 5.32506 4.12064 4.12258C5.32312 2.9201 6.91765 2.18973 8.61361 2.0646C10.3096 1.93948 11.994 2.42791 13.36 3.4409L3.43896 13.3619ZM54.631 29.3619H49.613C49.3444 29.3619 49.0869 29.4686 48.897 29.6584C48.7071 29.8483 48.6005 30.1059 48.6005 30.3744C48.6005 30.6429 48.7071 30.9005 48.897 31.0903C49.0869 31.2802 49.3444 31.3869 49.613 31.3869H54.65C54.3889 37.472 51.8545 43.2378 47.5477 47.5446C43.2409 51.8514 37.4751 54.3858 31.39 54.6469V49.6119C31.39 49.3434 31.2833 49.0858 31.0934 48.896C30.9035 48.7061 30.646 48.5994 30.3775 48.5994C30.1089 48.5994 29.8514 48.7061 29.6615 48.896C29.4716 49.0858 29.365 49.3434 29.365 49.6119V54.6489C23.2796 54.3881 17.5136 51.8538 13.2066 47.547C8.89959 43.2401 6.36504 37.4742 6.10396 31.3889H11.141C11.4095 31.3889 11.667 31.2822 11.8569 31.0923C12.0468 30.9025 12.1535 30.6449 12.1535 30.3764C12.1535 30.1079 12.0468 29.8503 11.8569 29.6604C11.667 29.4706 11.4095 29.3639 11.141 29.3639H6.12296C6.35278 23.2942 8.85853 17.5334 13.142 13.2269C13.158 13.2129 13.178 13.2079 13.194 13.1929C13.21 13.1779 13.214 13.1579 13.228 13.1409C17.5335 8.85606 23.2949 6.35006 29.365 6.1219V11.1399C29.365 11.4084 29.4716 11.666 29.6615 11.8558C29.8514 12.0457 30.1089 12.1524 30.3775 12.1524C30.646 12.1524 30.9035 12.0457 31.0934 11.8558C31.2833 11.666 31.39 11.4084 31.39 11.1399V6.1219C37.46 6.34996 43.2215 8.85598 47.527 13.1409C47.541 13.1569 47.546 13.1769 47.561 13.1929C47.576 13.2089 47.596 13.2129 47.613 13.2269C51.8959 17.5337 54.4012 23.2944 54.631 29.3639V29.3619ZM57.313 13.3619L47.391 3.4389C48.7557 2.41651 50.4434 1.9205 52.1443 2.04186C53.8453 2.16322 55.4454 2.89382 56.6512 4.09962C57.857 5.30543 58.5876 6.90557 58.709 8.60651C58.8304 10.3074 58.3343 11.9951 57.312 13.3599L57.313 13.3619Z" fill="black"/>
<path d="M44.7739 20.899L33.2589 27.546C32.5123 26.7809 31.4924 26.3437 30.4234 26.3306C29.3545 26.3174 28.3241 26.7294 27.5589 27.476L27.489 27.546L21.2349 23.936C21.1202 23.8687 20.9934 23.8248 20.8617 23.8065C20.73 23.7883 20.596 23.7962 20.4673 23.8298C20.3387 23.8633 20.2179 23.9219 20.1119 24.0022C20.0059 24.0824 19.9167 24.1828 19.8494 24.2975C19.7822 24.4122 19.7382 24.539 19.72 24.6707C19.7018 24.8024 19.7097 24.9364 19.7433 25.0651C19.7768 25.1938 19.8354 25.3145 19.9156 25.4206C19.9959 25.5266 20.0962 25.6157 20.211 25.683L20.2229 25.69L26.487 29.306C26.31 29.9098 26.2761 30.5465 26.3881 31.1657C26.5 31.7848 26.7546 32.3694 27.1318 32.873C27.509 33.3766 27.9984 33.7854 28.561 34.0669C29.1237 34.3485 29.7442 34.4951 30.3734 34.4951C31.0026 34.4951 31.6232 34.3485 32.1859 34.0669C32.7485 33.7854 33.2379 33.3766 33.615 32.873C33.9922 32.3694 34.2469 31.7848 34.3588 31.1657C34.4708 30.5465 34.4369 29.9098 34.2599 29.306L45.7849 22.653C46.0174 22.5186 46.187 22.2975 46.2564 22.0381C46.3258 21.7787 46.2893 21.5024 46.155 21.27C46.0206 21.0375 45.7994 20.8679 45.5401 20.7986C45.2807 20.7292 45.0044 20.7656 44.7719 20.9L44.7739 20.899ZM30.3739 32.406C29.9734 32.406 29.5819 32.2872 29.2489 32.0647C28.9159 31.8422 28.6564 31.5259 28.5031 31.1559C28.3498 30.7859 28.3097 30.3787 28.3879 29.9859C28.466 29.5931 28.6589 29.2323 28.9421 28.9491C29.2253 28.6659 29.5861 28.473 29.9789 28.3949C30.3717 28.3167 30.7789 28.3569 31.1489 28.5101C31.5189 28.6634 31.8352 28.9229 32.0577 29.256C32.2802 29.589 32.3989 29.9805 32.3989 30.381C32.3971 30.9163 32.1833 31.4291 31.8044 31.8073C31.4255 32.1854 30.9123 32.3982 30.377 32.399L30.3739 32.406Z" fill="black"/>
</svg>

