<svg width="73" height="75" viewBox="0 0 73 75" fill="none" xmlns="http://www.w3.org/2000/svg">
<path d="M54 36.0556V48.3334C54 60.2995 44.5979 70 33 70H26C14.402 70 5 60.2995 5 48.3334V36.0556C5 34.8589 5.9402 33.8889 7.1 33.8889H51.9C53.0599 33.8889 54 34.8589 54 36.0556Z" stroke="black" stroke-width="8.03027" stroke-linecap="round" stroke-linejoin="round"/>
<path d="M36.5 26.6667C36.5 23.0555 39.0001 19.4444 44.0002 19.4444C49.5228 19.4444 54 14.8251 54 9.12698V6.80554" stroke="black" stroke-width="8.03027" stroke-linecap="round" stroke-linejoin="round"/>
<path d="M22.5 26.6667V24.8611C22.5 18.878 27.201 14.0278 33 14.0278C36.8661 14.0278 40 10.7943 40 6.80556V5" stroke="black" stroke-width="8.03027" stroke-linecap="round" stroke-linejoin="round"/>
<path d="M50.5 33.8889H59.25C64.0824 33.8889 68 37.9308 68 42.9167C68 47.9026 64.0824 51.9445 59.25 51.9445H54" stroke="black" stroke-width="8.03027" stroke-linecap="round" stroke-linejoin="round"/>
</svg>



